<?xml version="1.0" standalone="no"?>
<!DOCTYPE svg PUBLIC "-//W3C//DTD SVG 20010904//EN"
 "http://www.w3.org/TR/2001/REC-SVG-20010904/DTD/svg10.dtd">
<svg version="1.0" xmlns="http://www.w3.org/2000/svg"
 width="512.000000pt" height="512.000000pt" viewBox="0 0 512.000000 512.000000"
 preserveAspectRatio="xMidYMid meet">

<g transform="translate(0.000000,512.000000) scale(0.100000,-0.100000)"
fill="#000000" stroke="none">
<path d="M3300 4869 c-84 -14 -212 -62 -292 -109 -90 -54 -226 -184 -276 -264
-71 -113 -86 -160 -86 -266 -1 -126 11 -156 79 -185 60 -27 104 -73 144 -153
53 -105 108 -139 210 -129 116 10 217 80 261 179 27 61 41 174 33 268 -3 41
-3 73 0 70 16 -14 49 -184 50 -255 2 -198 -96 -302 -315 -336 -70 -11 -214 -8
-253 5 -18 6 -23 -2 -50 -91 -135 -452 -384 -884 -695 -1207 -123 -127 -253
-228 -423 -327 -278 -163 -353 -225 -452 -373 -90 -137 -141 -264 -171 -431
-24 -140 -31 -585 -10 -695 40 -211 160 -336 374 -387 58 -15 163 -17 801 -20
l733 -4 -4 63 c-7 119 -68 164 -241 178 -56 5 -121 16 -145 24 -55 20 -125 68
-151 104 l-20 28 44 90 c97 197 138 441 100 589 -30 112 -101 213 -212 301
-34 27 -60 50 -58 52 2 2 34 -11 72 -30 141 -69 242 -206 279 -378 19 -91 14
-249 -11 -358 -9 -40 -14 -76 -11 -79 3 -3 40 11 82 31 144 71 305 266 412
497 73 157 73 156 68 134 -40 -175 -57 -509 -36 -685 24 -190 100 -395 190
-508 l40 -52 280 0 280 0 0 53 c0 104 -69 157 -233 179 -84 11 -85 12 -91 42
-35 203 -42 739 -12 920 38 233 71 301 214 444 117 117 159 179 208 310 84
224 94 445 32 732 -29 136 -77 283 -180 543 -102 261 -113 313 -76 366 41 61
76 72 308 101 163 19 293 108 361 245 26 53 31 73 26 107 -11 83 -54 113 -207
148 -98 23 -212 74 -248 113 -11 12 -30 46 -42 76 -66 169 -208 286 -395 326
-77 16 -200 18 -285 4z"/>
<path d="M1283 2415 c-261 -47 -500 -197 -626 -390 -257 -398 -162 -963 224
-1330 l74 -70 6 275 6 275 -30 35 c-16 19 -44 64 -61 100 -30 63 -31 69 -31
205 1 130 3 146 33 235 89 267 301 497 566 616 36 16 66 32 66 36 0 11 -71 28
-115 27 -22 0 -72 -7 -112 -14z"/>
</g>
</svg>
