<?xml version="1.0" standalone="no"?>
<!DOCTYPE svg PUBLIC "-//W3C//DTD SVG 20010904//EN"
 "http://www.w3.org/TR/2001/REC-SVG-20010904/DTD/svg10.dtd">
<svg version="1.0" xmlns="http://www.w3.org/2000/svg"
 width="512.000000pt" height="512.000000pt" viewBox="0 0 512.000000 512.000000"
 preserveAspectRatio="xMidYMid meet">

<g transform="translate(0.000000,512.000000) scale(0.100000,-0.100000)"
fill="#000000" stroke="none">
<path d="M3930 4705 c-315 -54 -552 -201 -662 -410 -72 -137 -95 -252 -123
-609 -25 -305 -51 -426 -120 -551 -75 -135 -140 -187 -450 -360 -383 -215
-549 -330 -714 -496 -262 -263 -385 -541 -398 -899 -8 -245 35 -498 133 -768
40 -113 64 -154 107 -186 28 -21 37 -21 683 -24 749 -3 670 -15 634 100 -37
122 -122 197 -242 214 l-48 6 47 52 c130 143 214 329 248 551 l13 80 1 -143 1
-143 41 -51 c84 -107 153 -283 184 -472 17 -104 37 -143 91 -173 37 -22 50
-23 263 -23 l224 0 -7 51 c-11 82 -45 160 -90 205 -37 38 -52 45 -142 69 -6 2
-20 34 -32 72 -87 280 -36 598 135 835 19 26 75 96 124 155 139 165 190 262
225 427 22 99 29 334 15 506 -19 245 -57 425 -117 567 -57 133 -42 148 156
157 231 10 371 44 425 102 45 49 28 127 -55 254 -58 89 -80 146 -80 209 0 26
-7 73 -15 106 -44 167 -152 261 -323 281 l-61 6 19 27 c25 33 47 122 56 217
l7 74 -39 -1 c-22 -1 -73 -7 -114 -14z"/>
<path d="M975 3505 c-209 -38 -384 -113 -460 -197 -50 -56 -63 -101 -46 -158
30 -100 121 -105 366 -22 249 84 336 90 445 35 94 -48 145 -148 157 -308 9
-137 -30 -222 -280 -605 -384 -588 -466 -774 -428 -972 52 -270 398 -647 752
-818 105 -51 115 -51 90 -2 -23 46 -92 245 -116 334 l-18 67 -85 48 c-100 56
-213 162 -254 239 -111 206 -63 397 194 780 63 93 163 240 221 328 119 176
209 347 233 446 33 129 1 330 -74 475 -55 107 -173 221 -283 274 -141 68 -262
84 -414 56z"/>
</g>
</svg>
