<?xml version="1.0" standalone="no"?>
<!DOCTYPE svg PUBLIC "-//W3C//DTD SVG 20010904//EN"
 "http://www.w3.org/TR/2001/REC-SVG-20010904/DTD/svg10.dtd">
<svg version="1.0" xmlns="http://www.w3.org/2000/svg"
 width="512.000000pt" height="512.000000pt" viewBox="0 0 512.000000 512.000000"
 preserveAspectRatio="xMidYMid meet">

<g transform="translate(0.000000,512.000000) scale(0.100000,-0.100000)"
fill="#000000" stroke="none">
<path d="M2423 5099 c-43 -27 -100 -116 -131 -203 -22 -59 -26 -88 -25 -171 0
-66 6 -115 17 -144 9 -24 16 -47 16 -51 0 -4 -32 -10 -70 -13 -81 -7 -158 -43
-195 -92 -13 -16 -42 -77 -64 -135 -71 -184 -124 -253 -328 -427 -68 -59 -81
-88 -58 -134 27 -52 91 -74 215 -74 169 1 282 46 396 156 l51 50 12 -103 c40
-334 170 -638 404 -948 39 -52 65 -99 82 -151 60 -180 177 -277 346 -287 121
-7 213 30 295 120 50 54 55 63 93 167 22 61 51 111 109 189 135 182 226 348
290 533 36 101 78 287 87 379 10 98 9 98 65 46 116 -108 224 -150 390 -151
124 0 188 22 215 74 23 46 10 75 -64 139 -199 172 -257 249 -325 432 -19 50
-45 105 -59 123 -39 51 -118 89 -199 95 -58 4 -68 7 -63 21 20 50 36 163 32
221 -15 185 -140 379 -230 356 -32 -8 -49 -39 -66 -121 -15 -72 -70 -187 -111
-234 l-29 -34 -113 28 c-200 50 -429 46 -622 -10 l-81 -24 -23 27 c-65 76 -98
147 -133 290 -19 79 -64 101 -126 61z m66 -152 c24 -89 48 -141 98 -210 19
-27 33 -50 31 -52 -2 -1 -36 -19 -76 -39 -40 -20 -91 -53 -113 -73 -22 -20
-41 -34 -43 -32 -2 2 -11 24 -19 49 -37 113 -30 215 24 330 26 56 67 116 75
107 1 -1 11 -37 23 -80z m1325 9 c60 -105 77 -244 43 -359 l-18 -58 -42 35
c-23 19 -77 53 -119 76 l-77 41 43 64 c46 67 80 146 97 227 11 48 12 49 30 32
10 -9 29 -35 43 -58z m-782 -309 c8 -127 94 -248 216 -305 49 -23 70 -27 147
-27 80 0 97 3 157 32 68 32 138 94 165 147 l16 30 48 -52 c78 -85 104 -181
115 -417 14 -287 -46 -570 -176 -840 -53 -110 -144 -256 -204 -329 l-24 -29
-47 41 c-88 77 -213 122 -340 122 -115 0 -222 -40 -323 -119 l-51 -41 -34 43
c-61 75 -138 199 -192 312 -53 111 -105 244 -105 271 0 11 19 14 98 14 55 0
124 7 157 15 294 75 487 356 431 625 -41 198 -192 374 -378 442 -52 19 -58 23
-44 34 38 27 267 89 347 93 13 1 17 -12 21 -62z m265 49 c133 -24 363 -109
363 -135 0 -20 -65 -95 -106 -121 -185 -117 -422 -4 -441 212 l-6 58 54 0 c30
0 91 -6 136 -14z m-632 -185 c225 -79 374 -308 344 -528 -24 -177 -182 -338
-381 -389 -61 -16 -238 -17 -254 -2 -19 20 -43 234 -44 388 0 289 32 413 133
514 47 47 50 48 96 43 26 -3 74 -15 106 -26z m-361 -80 c3 -5 0 -24 -8 -43
-21 -48 -37 -147 -46 -276 -7 -99 -11 -117 -35 -155 -43 -64 -125 -139 -186
-170 -110 -55 -303 -72 -356 -31 -17 14 -16 16 21 47 127 103 166 139 208 191
55 69 104 159 148 275 37 97 69 136 125 156 45 16 121 20 129 6z m1729 -2 c63
-17 101 -59 132 -146 68 -192 153 -312 304 -432 50 -40 90 -79 88 -85 -4 -14
-80 -34 -132 -35 -62 -1 -174 26 -234 56 -66 34 -159 125 -188 184 -16 33 -24
78 -32 181 -10 119 -27 201 -56 271 -6 15 -1 17 36 17 24 0 61 -5 82 -11z
m-818 -1503 c66 -17 141 -56 189 -98 l40 -35 -21 -54 c-11 -30 -28 -75 -37
-100 -51 -142 -220 -222 -367 -174 -82 28 -159 109 -189 200 -12 39 -29 82
-36 97 -13 25 -11 28 24 60 113 102 261 141 397 104z"/>
<path d="M3565 4030 c-74 -37 -98 -123 -52 -191 28 -41 60 -59 110 -59 53 0
93 26 118 77 36 74 -1 161 -79 183 -49 13 -51 13 -97 -10z m105 -101 c15 -28
-11 -69 -45 -69 -55 0 -74 73 -26 97 29 14 55 4 71 -28z"/>
<path d="M2583 4043 c-34 -7 -80 -55 -91 -96 -14 -51 1 -99 44 -136 29 -26 43
-31 86 -31 45 0 54 4 89 39 34 34 39 44 39 86 0 63 -28 108 -80 129 -41 16
-47 17 -87 9z m65 -89 c24 -17 30 -62 10 -82 -7 -7 -24 -12 -38 -12 -33 0 -50
17 -50 51 0 24 30 59 50 59 3 0 16 -7 28 -16z"/>
<path d="M2876 2765 c-33 -34 -15 -58 53 -74 24 -5 53 -19 65 -30 43 -40 100
-15 78 34 -25 53 -163 103 -196 70z"/>
<path d="M3257 2767 c-59 -19 -109 -64 -105 -95 4 -35 37 -40 75 -12 16 11 51
26 78 33 41 10 51 16 53 36 4 26 -20 52 -47 50 -9 0 -33 -6 -54 -12z"/>
<path d="M528 3823 c-13 -27 -23 -49 -24 -51 -1 -2 -21 10 -44 27 -53 38 -106
50 -127 28 -14 -13 -14 -26 -5 -89 6 -40 14 -98 17 -128 l6 -55 -68 -50 c-227
-167 -320 -475 -226 -746 54 -155 151 -275 294 -361 97 -59 175 -80 310 -86
137 -5 227 15 344 76 96 50 218 172 268 269 103 198 103 440 0 636 -51 97
-173 219 -270 270 -78 41 -203 77 -268 77 l-41 0 -18 58 c-10 31 -31 83 -47
115 -24 46 -34 57 -54 57 -20 0 -30 -9 -47 -47z m-62 -133 c50 -46 72 -44 94
11 l13 31 13 -24 c7 -12 16 -41 19 -63 12 -73 23 -81 117 -88 199 -13 365
-114 469 -287 108 -178 103 -432 -11 -609 -108 -167 -266 -258 -465 -268 -180
-10 -310 40 -438 168 -62 61 -85 94 -116 160 -128 272 -44 573 206 746 l58 39
-1 81 c-1 44 -4 94 -7 112 -4 17 -4 31 0 31 3 0 25 -18 49 -40z"/>
<path d="M884 3310 c-89 -59 -76 -195 22 -236 44 -18 68 -18 111 3 47 22 73
66 73 126 0 40 -5 53 -33 84 -29 31 -41 37 -88 40 -42 3 -61 -1 -85 -17z m110
-76 c40 -40 -7 -109 -59 -86 -32 15 -41 47 -21 77 19 29 57 33 80 9z"/>
<path d="M280 3072 c-52 -26 -83 -77 -77 -129 8 -78 62 -126 140 -125 143 2
174 201 40 258 -42 18 -61 18 -103 -4z m88 -78 c40 -28 22 -94 -27 -94 -59 0
-81 78 -28 100 30 12 30 12 55 -6z"/>
<path d="M662 3020 c-89 -40 -145 -101 -176 -192 -8 -25 -33 -74 -56 -108 -69
-108 -52 -192 46 -219 197 -55 580 95 680 265 62 106 11 176 -151 209 -16 3
-57 19 -89 35 -50 26 -70 30 -135 30 -53 0 -89 -6 -119 -20z m232 -90 c31 -16
73 -32 94 -36 70 -13 112 -34 112 -58 0 -27 -75 -102 -151 -149 -140 -88 -364
-141 -453 -107 -37 14 -33 47 13 112 22 30 43 68 47 84 38 158 195 230 338
154z"/>
<path d="M787 2863 c-20 -20 -4 -54 48 -98 58 -50 88 -54 101 -13 5 17 -4 32
-44 70 -47 45 -86 60 -105 41z"/>
<path d="M650 2794 c-6 -14 -10 -52 -10 -84 0 -48 4 -61 19 -70 15 -7 24 -5
40 8 16 13 21 31 23 82 3 75 -4 90 -38 90 -17 0 -27 -8 -34 -26z"/>
<path d="M4337 2380 c-39 -31 -84 -130 -109 -240 l-22 -99 -55 -20 c-66 -24
-158 -78 -219 -128 -98 -80 -193 -235 -228 -373 -20 -77 -22 -242 -5 -315 45
-185 171 -365 319 -452 23 -14 42 -27 42 -29 0 -3 -15 -18 -33 -34 -19 -16
-49 -57 -67 -92 -56 -105 -53 -252 6 -312 112 -111 327 152 276 337 l-11 39
42 -8 c76 -13 219 -6 299 15 232 60 418 237 494 467 26 81 29 101 29 224 -1
121 -4 143 -29 215 -34 99 -85 184 -152 255 l-52 55 20 79 c28 109 19 177 -28
224 -33 33 -37 35 -92 29 -34 -3 -80 -16 -111 -31 -77 -40 -86 -35 -126 64
-54 134 -123 181 -188 130z m83 -92 c11 -18 29 -61 41 -95 38 -116 101 -139
222 -82 82 38 117 36 129 -6 19 -67 -25 -213 -84 -279 l-40 -46 -76 2 c-113 3
-165 -32 -207 -139 -10 -24 -22 -40 -27 -37 -6 4 -20 30 -33 58 -75 171 -72
428 6 594 17 34 34 62 40 62 5 0 18 -15 29 -32z m-207 -420 c11 -153 85 -330
148 -352 51 -17 75 -1 109 72 50 106 59 113 150 110 87 -3 130 16 177 79 l27
36 43 -49 c91 -103 153 -269 153 -409 0 -280 -203 -541 -475 -610 -32 -8 -99
-15 -147 -15 l-88 0 43 40 c24 21 56 62 71 91 25 44 28 59 24 115 -3 52 -9 70
-34 100 -51 64 -78 78 -152 82 -88 5 -144 -23 -187 -93 -27 -44 -30 -55 -30
-141 0 -102 5 -99 -65 -40 -88 75 -164 198 -195 315 -19 73 -21 227 -4 297 6
27 29 87 52 134 53 113 166 229 276 283 40 21 79 37 86 37 8 0 14 -28 18 -82z
m97 -803 c52 -27 76 -106 49 -158 -36 -67 -123 -137 -170 -137 -22 0 -32 7
-45 32 -22 42 -29 133 -15 185 22 81 106 117 181 78z m-153 -436 c24 -69 10
-144 -41 -217 -32 -46 -83 -79 -99 -63 -20 20 -21 128 -2 179 19 49 101 145
119 139 6 -2 16 -19 23 -38z"/>
<path d="M3943 1470 c-45 -27 -65 -62 -65 -115 0 -53 20 -88 65 -115 87 -54
200 11 200 115 0 104 -113 169 -200 115z m99 -72 c31 -24 27 -74 -7 -90 -41
-18 -75 3 -75 46 0 49 45 73 82 44z"/>
<path d="M4630 1339 c-70 -28 -103 -103 -75 -175 21 -55 65 -84 130 -84 42 0
52 5 86 39 35 34 39 44 39 87 0 103 -90 169 -180 133z m78 -85 c24 -17 30 -62
10 -82 -37 -37 -113 12 -89 57 10 18 37 40 51 41 3 0 16 -7 28 -16z"/>
<path d="M2225 2350 c-57 -14 -85 -30 -129 -70 -52 -48 -84 -117 -93 -200 -3
-33 -7 -60 -9 -60 -2 0 -192 -45 -422 -100 -230 -55 -423 -100 -428 -100 -5 0
-18 14 -28 32 -52 86 -136 148 -223 163 -57 9 -142 -14 -255 -71 -113 -57
-183 -104 -265 -179 -89 -80 -83 -125 15 -125 108 0 253 -91 309 -194 6 -10 7
-35 2 -60 -17 -89 -21 -243 -9 -340 51 -427 278 -735 670 -907 58 -25 135 -60
171 -78 290 -139 745 -22 921 238 18 25 54 70 81 100 95 106 190 266 235 396
108 316 45 705 -162 1008 -53 77 -56 103 -26 193 27 78 82 149 158 202 83 58
84 82 8 111 -93 35 -209 51 -355 50 -75 -1 -149 -5 -166 -9z m398 -90 l39 -11
-49 -52 c-85 -90 -131 -192 -134 -303 -2 -46 3 -57 53 -130 72 -102 111 -181
153 -307 44 -134 59 -243 52 -381 -10 -182 -58 -328 -163 -488 l-48 -73 -7 46
c-9 63 -39 118 -94 171 -222 219 -730 171 -980 -93 -83 -89 -119 -162 -123
-256 -3 -40 1 -87 7 -104 6 -18 9 -34 7 -37 -12 -11 -177 101 -253 172 -129
120 -209 246 -265 416 -52 154 -67 369 -39 537 13 80 13 83 -10 120 -60 98
-176 190 -269 214 -28 7 -50 16 -50 21 0 18 132 104 237 155 93 45 122 55 167
55 93 1 152 -46 222 -177 6 -11 19 -21 28 -23 20 -4 947 216 962 229 6 5 14
43 17 85 9 122 50 185 143 220 47 17 334 13 397 -6z m-455 -1485 c174 -41 272
-138 272 -271 0 -81 -34 -151 -108 -223 -177 -171 -472 -243 -704 -171 -255
79 -306 314 -106 494 94 85 246 155 388 179 59 10 200 6 258 -8z"/>
<path d="M2348 2137 c-79 -60 -141 -185 -124 -251 11 -45 76 -38 76 8 0 63 45
142 106 185 39 27 45 64 15 81 -26 14 -24 14 -73 -23z"/>
<path d="M708 1759 c-21 -12 -23 -42 -5 -57 7 -6 35 -16 62 -22 63 -14 116
-49 144 -93 25 -41 45 -51 72 -37 73 39 -85 196 -216 214 -22 3 -48 1 -57 -5z"/>
<path d="M2354 1268 c-18 -4 -46 -24 -63 -43 -25 -29 -31 -45 -31 -81 0 -64
23 -102 77 -126 54 -24 92 -19 139 17 55 42 67 121 26 183 -27 42 -95 64 -148
50z m81 -102 c19 -28 9 -58 -26 -76 -45 -25 -94 51 -57 88 21 21 66 14 83 -12z"/>
<path d="M1135 976 c-50 -23 -77 -60 -82 -113 -9 -110 97 -180 195 -129 41 21
63 56 69 109 10 96 -96 173 -182 133z m99 -109 c12 -34 -15 -67 -55 -67 -52 0
-67 73 -20 96 32 16 64 3 75 -29z"/>
<path d="M2040 638 c-7 -17 -1 -56 23 -153 30 -123 34 -130 58 -133 50 -6 53
16 24 145 -31 130 -46 163 -75 163 -12 0 -25 -10 -30 -22z"/>
<path d="M1670 555 c-10 -12 -6 -41 21 -153 33 -131 35 -137 61 -140 47 -6 50
20 17 158 -16 68 -34 129 -40 137 -15 17 -44 17 -59 -2z"/>
</g>
</svg>
