<svg width="91" height="95" viewBox="0 0 91 95" fill="none" xmlns="http://www.w3.org/2000/svg">
<g clip-path="url(#clip0_366_1929)">
<path d="M39.2806 69.5158C46.673 63.1639 50.7441 55.1882 50.7441 47.0573C50.7441 38.9265 46.673 31.0324 39.2806 24.8295C32.6361 19.2538 24.2619 15.9694 16.8799 16.0436C13.294 16.0796 10.5625 17.2311 8.76121 19.4659C6.98316 21.6717 6.38171 24.5663 6.38189 27.7889C6.38189 31.218 7.06297 35.0187 7.73231 38.753C8.31723 42.0162 8.86964 45.0984 8.86964 47.4784C8.86964 49.5325 8.34532 52.434 7.79026 55.5053C6.49279 62.6832 5.02258 70.819 8.8268 75.472C10.6352 77.684 13.3448 78.7875 16.8799 78.752C24.2619 78.678 32.6361 75.2252 39.2806 69.5158Z" fill="#809CED"/>
<path d="M79.4183 69.7602C82.7211 67.4302 84.6152 64.1222 84.6152 60.6844C84.6152 57.2463 82.7209 53.9766 79.4183 51.713C76.3842 49.6336 72.3997 48.5115 68.1988 48.5537C63.9979 48.5959 60.0135 49.7979 56.9794 51.9385C53.6767 54.2685 51.7824 57.5765 51.7824 61.0143C51.7824 64.4523 53.6767 67.7221 56.9794 69.9857C60.0135 72.0651 63.9979 73.1872 68.1988 73.145C72.3997 73.1027 76.3844 71.9008 79.4183 69.7602Z" fill="#809CED"/>
<path d="M79.4251 41.824C82.728 39.4939 84.6221 36.1861 84.6221 32.7481C84.6221 29.3101 82.7278 26.0402 79.4251 23.7767C76.391 21.6973 72.4066 20.5753 68.2057 20.6175C64.0047 20.6597 60.0203 21.8617 56.9862 24.0023C53.6834 26.3323 51.7891 29.6401 51.7891 33.0781C51.7891 36.5161 53.6834 39.7858 56.9862 42.0495C60.0203 44.1289 64.0046 45.251 68.2057 45.2087C72.4066 45.1663 76.3912 43.9644 79.4251 41.824Z" fill="#809CED"/>
<path d="M53.6532 93.1351C56.7251 92.1783 58.9573 90.1712 59.9382 87.4838C60.7275 85.3211 60.5937 82.8902 59.5612 80.6387C58.1386 77.5359 55.201 75.0177 51.5019 73.73C48.479 72.6777 45.2838 72.5748 42.5046 73.4405C39.4327 74.3973 37.2005 76.4044 36.2196 79.092C35.8801 80.0221 35.7114 81.0014 35.7114 81.995C35.7114 83.312 36.0081 84.6539 36.5966 85.9372C38.0191 89.04 40.9567 91.5583 44.6557 92.846L44.6559 92.846C47.6786 93.8981 50.8739 94.001 53.6532 93.1351Z" fill="#809CED"/>
<path d="M51.5041 20.3633C55.2033 19.0011 58.1407 16.4238 59.5632 13.2926C60.5957 11.0201 60.7294 8.58633 59.9402 6.43972C58.9591 3.77185 56.727 1.80959 53.6552 0.914537C50.876 0.104745 47.6807 0.271895 44.6579 1.38492L44.6578 1.38492C40.9586 2.7473 38.0212 5.32444 36.5986 8.45565C36.0101 9.75104 35.7135 11.0987 35.7135 12.4157C35.7135 13.4093 35.8823 14.3854 36.2216 15.3085C37.2027 17.9767 39.4349 19.9388 42.5066 20.8339C45.2857 21.6433 48.481 21.4761 51.5041 20.3633Z" fill="#809CED"/>
</g>
<defs>
<clipPath id="clip0_366_1929">
<rect width="93.3033" height="91.0044" fill="white" transform="matrix(-4.37114e-08 1 -0.99995 0.0100501 91 0)"/>
</clipPath>
</defs>
</svg>
